C:\Users\r0593348\3dpredictsim\Results\Batchsim_tmt_linear\Pog_s1_tmt_aCst_d05_k2000_ig24_pas_GRF.mot
nRows=22
nColumns=19

name C:\Users\r0593348\3dpredictsim\Results\Batchsim_tmt_linear\Pog_s1_tmt_aCst_d05_k2000_ig24_pas_GRF.mot
datacolumns 19
datarows 22
range 0.5512463820 0.7827698624
endheader
time 	ground_force_vx	ground_force_vy	ground_force_vz	ground_force_px	ground_force_py	ground_force_pz	1_ground_force_vx	1_ground_force_vy	1_ground_force_vz	1_ground_force_px	1_ground_force_py	1_ground_force_pz	ground_torque_x	ground_torque_y	ground_torque_z	1_ground_torque_x	1_ground_torque_y	1_ground_torque_z
        0.5512463820	       93.3405988977	      468.0935797528	        5.2300717387	        0.3680281838	        0.0000000000	        0.0355055544	     -105.6056689051	       96.1546962127	      -41.9002536637	        0.8535351450	        0.0000000000	       -0.0380946726	        0.0000000000	        0.0000000000	        0.0000000000	        0.0000000000	        0.0000000000	        0.0000000000	
        0.5622713096	       75.1085794142	      384.9968566457	       10.0134964271	        0.3721621368	        0.0000000000	        0.0342366540	      -92.7504598134	      199.1391803134	      -72.6038029550	        0.8601587839	        0.0000000000	       -0.0363947478	        0.0000000000	        0.0000000000	        0.0000000000	        0.0000000000	        0.0000000000	        0.0000000000	
        0.5732962372	       54.7713486054	      298.1401513710	        7.0679150370	        0.3785455958	        0.0000000000	        0.0316821284	      -45.8539684995	      358.8045115439	      -16.0250287867	        0.8644028079	        0.0000000000	       -0.0348391878	        0.0000000000	        0.0000000000	        0.0000000000	        0.0000000000	        0.0000000000	        0.0000000000	
        0.5843211649	       25.3481713708	      196.4856924169	        6.1567537899	        0.3909514507	        0.0000000000	        0.0260085324	      -53.7633858064	      532.7375350150	        2.7844134912	        0.8706099671	        0.0000000000	       -0.0361705561	        0.0000000000	        0.0000000000	        0.0000000000	        0.0000000000	        0.0000000000	        0.0000000000	
        0.5953460925	        6.6760851591	      137.5466922299	       10.4899939637	        0.4031181382	        0.0000000000	        0.0197674895	      -86.5641349948	      707.7814593243	       10.1911738485	        0.8783851097	        0.0000000000	       -0.0385248312	        0.0000000000	        0.0000000000	        0.0000000000	        0.0000000000	        0.0000000000	        0.0000000000	
        0.6063710202	        1.2807497526	      107.3999905957	       11.7411066269	        0.4031744900	        0.0000000000	        0.0200221065	     -106.0058661152	      809.3782034505	       13.0679114127	        0.8836661628	        0.0000000000	       -0.0400109430	        0.0000000000	        0.0000000000	        0.0000000000	        0.0000000000	        0.0000000000	        0.0000000000	
        0.6173959478	       -2.8471852897	       70.2746306661	       10.9145378057	        0.4036135326	        0.0000000000	        0.0200866833	     -109.1094832466	      842.5398903614	       13.8308874024	        0.8873220992	        0.0000000000	       -0.0408904633	        0.0000000000	        0.0000000000	        0.0000000000	        0.0000000000	        0.0000000000	        0.0000000000	
        0.6284208754	       -8.6947765141	       28.9421750224	        5.7635993448	        0.4032196414	        0.0000000000	        0.0198851677	     -103.8500747074	      836.5835105045	       13.9936174686	        0.8903757007	        0.0000000000	       -0.0413963362	        0.0000000000	        0.0000000000	        0.0000000000	        0.0000000000	        0.0000000000	        0.0000000000	
        0.6394458031	        0.1171228532	       -0.1165609956	       -0.0033191309	        0.0000000000	        0.0000000000	        0.0000000000	      -94.5832945037	      817.9171554349	       14.2622560820	        0.8935849827	        0.0000000000	       -0.0416369794	        0.0000000000	        0.0000000000	        0.0000000000	        0.0000000000	        0.0000000000	        0.0000000000	
        0.6504707307	        0.0002096920	       -0.0001716333	        0.0000108994	        0.0000000000	        0.0000000000	        0.0000000000	      -82.6537677017	      788.5055890654	       14.9626772383	        0.8969226663	        0.0000000000	       -0.0417310644	        0.0000000000	        0.0000000000	        0.0000000000	        0.0000000000	        0.0000000000	        0.0000000000	
        0.6614956584	        0.0000801515	       -0.0000569933	        0.0000057062	        0.0000000000	        0.0000000000	        0.0000000000	      -71.9894924301	      756.4281308905	       15.2757094220	        0.9008993902	        0.0000000000	       -0.0417249318	        0.0000000000	        0.0000000000	        0.0000000000	        0.0000000000	        0.0000000000	        0.0000000000	
        0.6725205860	        0.0007309869	       -0.0004658634	        0.0000587489	        0.0000000000	        0.0000000000	        0.0000000000	      -62.5454113585	      725.7254784942	       15.4847694509	        0.9053528111	        0.0000000000	       -0.0416153656	        0.0000000000	        0.0000000000	        0.0000000000	        0.0000000000	        0.0000000000	        0.0000000000	
        0.6835455136	        0.0059311715	       -0.0034645260	        0.0005083579	        0.0000000000	        0.0000000000	        0.0000000000	      -53.1840517231	      694.7942964754	       16.0155487304	        0.9096967252	        0.0000000000	       -0.0415261128	        0.0000000000	        0.0000000000	        0.0000000000	        0.0000000000	        0.0000000000	        0.0000000000	
        0.6945704413	       -0.0300279235	        0.0163288398	       -0.0026846979	        0.0000000000	        0.0000000000	        0.0000000000	      -44.0846840572	      665.5564428880	       16.5138520564	        0.9139381334	        0.0000000000	       -0.0415026546	        0.0000000000	        0.0000000000	        0.0000000000	        0.0000000000	        0.0000000000	        0.0000000000	
        0.7055953689	       -0.0205938671	        0.0105357533	       -0.0019045575	        0.0000000000	        0.0000000000	        0.0000000000	      -36.2008396419	      640.4223586191	       16.9605013979	        0.9182626106	        0.0000000000	       -0.0415288928	        0.0000000000	        0.0000000000	        0.0000000000	        0.0000000000	        0.0000000000	        0.0000000000	
        0.7166202966	       -0.0140706384	        0.0068319760	       -0.0013362969	        0.0000000000	        0.0000000000	        0.0000000000	      -29.6707109052	      619.6541466048	       17.5714595409	        0.9226223261	        0.0000000000	       -0.0415774958	        0.0000000000	        0.0000000000	        0.0000000000	        0.0000000000	        0.0000000000	        0.0000000000	
        0.7276452242	       -0.0122892128	        0.0057055770	       -0.0011871682	        0.0000000000	        0.0000000000	        0.0000000000	      -23.9955092553	      603.5882885666	       18.0283262029	        0.9272728947	        0.0000000000	       -0.0416308763	        0.0000000000	        0.0000000000	        0.0000000000	        0.0000000000	        0.0000000000	        0.0000000000	
        0.7386701518	       -0.0143264480	        0.0063955559	       -0.0014005153	        0.0000000000	        0.0000000000	        0.0000000000	      -19.8455850674	      592.4873669778	       18.2484849362	        0.9323447146	        0.0000000000	       -0.0416593421	        0.0000000000	        0.0000000000	        0.0000000000	        0.0000000000	        0.0000000000	        0.0000000000	
        0.7496950795	       -0.0216210011	        0.0093243970	       -0.0021193974	        0.0000000000	        0.0000000000	        0.0000000000	      -16.7093068335	      585.6456465489	       18.2261200006	        0.9377753130	        0.0000000000	       -0.0416437206	        0.0000000000	        0.0000000000	        0.0000000000	        0.0000000000	        0.0000000000	        0.0000000000	
        0.7607200071	       -0.0395604018	        0.0165516017	       -0.0038608569	        0.0000000000	        0.0000000000	        0.0000000000	      -14.9965091277	      582.2946933893	       18.1929776713	        0.9435014463	        0.0000000000	       -0.0415734859	        0.0000000000	        0.0000000000	        0.0000000000	        0.0000000000	        0.0000000000	        0.0000000000	
        0.7717449348	       -0.0809245258	        0.0329780470	       -0.0078262916	        0.0000000000	        0.0000000000	        0.0000000000	      -14.1190866769	      581.3704536755	       18.0556683714	        0.9493333786	        0.0000000000	       -0.0414594113	        0.0000000000	        0.0000000000	        0.0000000000	        0.0000000000	        0.0000000000	        0.0000000000	
        0.7827698624	       -0.1706692656	        0.0679945224	       -0.0163030080	        0.0000000000	        0.0000000000	        0.0000000000	      -13.0790113082	      581.7162121926	       18.0186325289	        0.9552502115	        0.0000000000	       -0.0413070214	        0.0000000000	        0.0000000000	        0.0000000000	        0.0000000000	        0.0000000000	        0.0000000000	
